<svg width="109" height="109" viewBox="0 0 109 109" fill="none" xmlns="http://www.w3.org/2000/svg">
<path d="M57.225 54.5L39.5125 36.7875C38.6799 35.9549 38.2635 34.8951 38.2635 33.6083C38.2635 32.3215 38.6799 31.2618 39.5125 30.4292C40.3451 29.5965 41.4049 29.1802 42.6917 29.1802C43.9785 29.1802 45.0382 29.5965 45.8708 30.4292L66.7625 51.3208C67.2167 51.775 67.5391 52.267 67.7299 52.7969C67.9206 53.3267 68.0145 53.8944 68.0115 54.5C68.0084 55.1056 67.9146 55.6733 67.7299 56.2031C67.5452 56.733 67.2227 57.225 66.7625 57.6792L45.8708 78.5708C45.0382 79.4035 43.9785 79.8198 42.6917 79.8198C41.4049 79.8198 40.3451 79.4035 39.5125 78.5708C38.6799 77.7382 38.2635 76.6785 38.2635 75.3917C38.2635 74.1049 38.6799 73.0451 39.5125 72.2125L57.225 54.5Z" fill="#292F36" fill-opacity="0.7"/>
</svg>
