<svg width="109" height="109" viewBox="0 0 109 109" fill="none" xmlns="http://www.w3.org/2000/svg">
<path d="M49.05 54.5L66.7625 72.2125C67.5951 73.0451 68.0115 74.1049 68.0115 75.3917C68.0115 76.6785 67.5951 77.7382 66.7625 78.5708C65.9299 79.4035 64.8701 79.8198 63.5833 79.8198C62.2965 79.8198 61.2368 79.4035 60.4042 78.5708L39.5125 57.6792C39.0583 57.225 38.7374 56.733 38.5497 56.2031C38.3619 55.6733 38.2666 55.1056 38.2635 54.5C38.2605 53.8944 38.3559 53.3267 38.5497 52.7969C38.7434 52.267 39.0644 51.775 39.5125 51.3208L60.4042 30.4292C61.2368 29.5965 62.2965 29.1802 63.5833 29.1802C64.8701 29.1802 65.9299 29.5965 66.7625 30.4292C67.5951 31.2618 68.0115 32.3215 68.0115 33.6083C68.0115 34.8951 67.5951 35.9549 66.7625 36.7875L49.05 54.5Z" fill="#292F36" fill-opacity="0.7"/>
</svg>
